<svg width="2810" height="307" xmlns="http://www.w3.org/2000/svg" xmlns:xlink="http://www.w3.org/1999/xlink" xml:space="preserve" overflow="hidden"><defs><clipPath id="clip0"><rect x="202" y="963" width="2729" height="305"/></clipPath><clipPath id="clip1"><rect x="202" y="963" width="2729" height="305"/></clipPath><clipPath id="clip2"><rect x="202" y="963" width="2729" height="305"/></clipPath></defs><g transform="translate(-160 -962)"><g><path d="M163 1014.5C163 986.61 185.61 964 213.501 964L2918.5 964C2946.39 964 2969 986.61 2969 1014.5L2969 1216.5C2969 1244.39 2946.39 1267 2918.5 1267L213.501 1267C185.61 1267 163 1244.39 163 1216.5Z" fill="#FFFFFF" fill-rule="evenodd" fill-opacity="1"/><g clip-path="url(#clip0)"><g clip-path="url(#clip1)"><g clip-path="url(#clip2)"><path d="M2605.85 244.082C2579.77 244.082 2560.85 224.69 2560.85 197.995 2560.85 171.301 2579.77 151.909 2605.85 151.909 2631.91 151.909 2650.84 171.301 2650.84 197.995 2650.84 224.69 2631.91 244.082 2605.85 244.082ZM2644.25 32.2241 2644.25 95.8541C2629.78 88.0973 2613.32 84.0371 2596.29 84.0371 2531.14 84.0371 2483.87 131.972 2483.87 197.995 2483.87 264.14 2531.14 312.151 2596.29 312.151 2619 312.151 2640.31 304.243 2656.52 290.032L2663.21 305.152 2721.9 305.152 2721.9 13.7411 2644.25 32.2241ZM2376.13 209.525C2376.13 229.371 2366.26 240.734 2349.05 240.734 2331.69 240.734 2321.75 229.371 2321.75 209.525L2321.75 89.9153 2243.31 108.398 2243.31 212.661C2243.31 272.049 2285.8 311.954 2349.05 311.954 2412.17 311.954 2454.59 272.049 2454.59 212.661L2454.59 89.9002 2376.13 108.383 2376.13 209.54ZM2093.78 242.885C2068.32 242.885 2050.57 224.432 2050.57 197.995 2050.57 171.559 2068.32 153.106 2093.78 153.106 2119.23 153.106 2136.98 171.574 2136.98 198.011 2136.98 224.447 2119.23 242.885 2093.78 242.885M2093.78 84.0523C2024.39 84.0523 1974.05 131.972 1974.05 197.98 1974.05 264.034 2024.39 311.939 2093.78 311.939 2163.16 311.939 2213.51 264.019 2213.51 197.995 2213.51 131.972 2163.16 84.0674 2093.78 84.0674M1856.45 305.152 1938.26 305.152 1938.26 13.8017 1856.45 32.1938ZM1685 235.568C1648.84 235.568 1622.6 206.934 1622.6 167.514 1622.6 127.745 1648.84 98.8538 1685.01 98.8538 1708.56 98.8538 1728.83 112.034 1739.24 134.123L1817.94 115.216C1798.38 58.1003 1747.37 22.6493 1684.83 22.6493 1601.4 22.6493 1538.48 84.9158 1538.48 167.514 1538.48 249.854 1601.4 311.939 1684.83 311.939 1753.58 311.939 1807.67 269.064 1822.65 202.737L1823.17 200.51 1738.34 200.51C1728.57 222.463 1708.65 235.568 1685.01 235.568M1318.94 157 1271.22 157 1271.22 98.3387 1318.94 98.3387C1335.14 98.3387 1348.26 111.474 1348.26 127.669 1348.26 143.88 1335.14 157 1318.94 157ZM1387.97 206.692C1420.3 193.163 1436.75 163.863 1436.75 126.7 1436.75 91.5364 1423.93 65.5389 1398.65 49.389 1375.17 34.3905 1344.67 27.4064 1302.72 27.4064L1185.28 27.4064 1185.28 305.712 1272.57 305.712 1272.57 227.947 1303.93 227.947 1357.11 305.712 1449.89 305.712 1379.53 210.237 1387.97 206.692ZM1010.69 199.98 1137.54 199.98 1137.54 133.138 1010.69 133.138 1010.69 95.6117 1138.89 95.6117 1138.89 27.4064 922.045 27.4064 922.045 305.712 1141.63 305.712 1141.63 237.492 1010.69 237.492ZM735.169 210.403 669.706 27.3912 576.958 27.3912 686.068 305.712 784.286 305.712 893.396 27.3912 800.648 27.3912ZM515.57 27.3912 624.696 305.697 531.947 305.697 518.767 268.882 414.186 268.882 401.006 305.697 308.257 305.697 417.383 27.3912 515.57 27.3912ZM466.469 115.079 435.381 202.025 497.572 202.025 466.469 115.079ZM189.587 176.346 85.9309 27.3912 0 27.3912 0 305.712 90.0214 305.712 90.0214 156.757 193.693 305.712 279.624 305.712 279.624 27.3912 189.587 27.3912Z" fill="#03C75A" fill-rule="evenodd" fill-opacity="1" transform="matrix(1.00037 0 0 1 202 948.85)"/></g></g></g></g></g></svg>